<?xml version="1.0"?>
<svg xmlns="http://www.w3.org/2000/svg" xmlns:xlink="http://www.w3.org/1999/xlink" xmlns:svgjs="http://svgjs.com/svgjs" version="1.1" width="512" height="512" x="0" y="0" viewBox="0 0 24 24" style="enable-background:new 0 0 512 512" xml:space="preserve"><g><path xmlns="http://www.w3.org/2000/svg" d="M18.5,0H5.5A5.506,5.506,0,0,0,0,5.5v13A5.506,5.506,0,0,0,5.5,24h13A5.506,5.506,0,0,0,24,18.5V5.5A5.506,5.506,0,0,0,18.5,0ZM21,18.5A2.5,2.5,0,0,1,18.5,21H18V20A6,6,0,0,0,6,20v1H5.5A2.5,2.5,0,0,1,3,18.5V5.5A2.5,2.5,0,0,1,5.5,3h13A2.5,2.5,0,0,1,21,5.5Z" fill="#93fe02" data-original="#000000"/><circle xmlns="http://www.w3.org/2000/svg" cx="12" cy="8.5" r="3.5" fill="#93fe02" data-original="#000000"/></g></svg>
